<svg xmlns="http://www.w3.org/2000/svg" version="1.1" xmlns:xlink="http://www.w3.org/1999/xlink" xmlns:svgjs="http://svgjs.com/svgjs" width="1440" height="560" preserveAspectRatio="none" viewBox="0 0 1440 560"><g mask="url(&quot;#SvgjsMask1007&quot;)" fill="none"><rect width="1440" height="560" x="0" y="0" fill="#0e2a47"></rect><path d="M 0,91 C 57.6,107.4 172.8,187.2 288,173 C 403.2,158.8 460.8,9 576,20 C 691.2,31 748.8,230.4 864,228 C 979.2,225.6 1036.8,8 1152,8 C 1267.2,8 1382.4,184 1440,228L1440 560L0 560z" fill="#184a7e"></path><path d="M 0,281 C 72,315 216,428.2 360,451 C 504,473.8 576,378.2 720,395 C 864,411.8 936,543 1080,535 C 1224,527 1368,391 1440,355L1440 560L0 560z" fill="#2264ab"></path></g><defs><mask id="SvgjsMask1007"><rect width="1440" height="560" fill="#ffffff"></rect></mask></defs></svg>